Coordinates
version=1
nRows=16
nColumns=36
inDegrees=yes

Units are S.I. units (second, meters, Newtons, ...)
If the header above contains a line with 'inDegrees', this indicates whether rotational values are in degrees (yes) or radians (no).

endheader
time	pelvis_tilt	pelvis_list	pelvis_rotation	pelvis_tx	pelvis_ty	pelvis_tz	hip_flexion_r	hip_adduction_r	hip_rotation_r	knee_angle_r	knee_angle_r_beta	ankle_angle_r	subtalar_angle_r	mtp_angle_r	hip_flexion_l	hip_adduction_l	hip_rotation_l	knee_angle_l	knee_angle_l_beta	ankle_angle_l	subtalar_angle_l	mtp_angle_l	lumbar_extension	lumbar_bending	lumbar_rotation	arm_flex_r	arm_add_r	arm_rot_r	elbow_flex_r	pro_sup_r	arm_flex_l	arm_add_l	arm_rot_l	elbow_flex_l	pro_sup_l
      7.42372880	    -10.04216520	      0.29022362	      3.65957009	      1.18049768	      0.94088211	     -0.02245539	     27.53195459	      1.90641453	      5.72867565	     24.01585041	      0.41915566	      1.59700979	     -9.68517770	     -7.49999987	     20.36650565	     -1.13948291	      9.17221864	     66.81500871	      1.16614189	     -2.39962843	     -9.94452243	     -7.49999987	    -17.68557796	      3.18806369	     -8.45969117	     11.47372598	    -15.42492545	      3.51584672	     35.59078344	     76.35943588	     17.89335590	    -12.39772818	     12.18899096	     35.22506604	     67.67102159
      7.44067800	     -9.75837362	      0.41592241	      2.74185669	      1.18853136	      0.94086733	     -0.02437291	     26.50827687	      1.46331713	      5.33969633	     23.16811629	      0.40435991	      1.98955767	     -7.56563330	     -7.49999987	     22.45182950	     -0.60614936	      8.62038986	     67.60446444	      1.17992049	     -0.45453928	    -12.46525282	     -7.49999987	    -17.66287017	      3.19648158	     -8.06045759	     11.82536690	    -15.96411982	      3.53983444	     35.96838414	     76.35467722	     18.17266015	    -12.19608503	     12.39353766	     36.53112892	     67.92898794
      7.45762710	     -9.52752091	      0.80279059	      1.69561916	      1.19143770	      0.94466156	     -0.02837168	     25.63668767	      0.82588045	      5.25743557	     22.56267601	      0.39379298	      2.46212963	     -5.70187531	     -7.49999987	     24.34414592	      0.28813140	      8.25077858	     67.39356285	      1.17623957	      1.31408510	    -14.37616797	     -7.49999987	    -17.65030355	      2.88234876	     -7.93937795	     12.42618260	    -16.35823043	      3.54168577	     36.41087288	     76.55859909	     18.42582913	    -12.03954574	     12.45140137	     37.56078720	     68.38880622
      7.47457630	     -9.23009403	      0.87683310	      0.71169967	      1.19680539	      0.94331246	     -0.03042153	     24.81120643	      0.64930645	      5.57457737	     21.94903045	      0.38308285	      2.53621000	     -5.05415721	     -7.49999987	     25.90971940	      0.49759690	      7.72505268	     66.62244470	      1.16278102	      3.95060108	    -17.17323851	     -7.49999987	    -17.30453204	      2.83283851	     -7.86985734	     13.01920668	    -16.55124117	      3.46280569	     36.49020764	     76.68851135	     18.73244831	    -11.72105409	     12.48034767	     37.76552895	     68.52301629
      7.49152540	     -9.35865171	      1.29621836	     -0.63440213	      1.19650961	      0.94863121	     -0.03828302	     24.75639425	     -0.07684200	      5.46787648	     21.61352951	      0.37722725	      3.37254299	     -3.09368198	     -7.49999987	     28.16869545	      0.97705744	      8.09185430	     64.64654789	      1.12829511	      4.53190633	    -20.88371964	     -7.49999987	    -16.86195417	      2.46739479	     -7.43149741	     13.32182403	    -17.03081261	      3.31907723	     37.32620984	     76.99792302	     18.88266314	    -11.24407716	     12.09288940	     38.84970480	     68.94315927
      7.50847460	     -9.33026820	      1.74835479	     -2.43423931	      1.20012466	      0.95289657	     -0.04293569	     24.44633059	     -0.61804465	      5.97539063	     20.89968340	      0.36476829	      2.86560338	     -1.89591848	     -7.49999987	     29.89943099	      1.38065270	      8.54011368	     62.02687741	      1.08257324	      4.39693505	    -20.66707571	     -7.49999987	    -16.45548141	      2.14825740	     -6.98372163	     13.94463758	    -17.37256098	      3.34146413	     37.96778291	     77.00965710	     18.94838526	    -10.91297342	     11.92284953	     39.36757933	     69.00258664
      7.52542370	     -9.16639503	      2.07868955	     -4.50709792	      1.20444778	      0.95395095	     -0.04791256	     24.22560960	     -1.02416793	      6.12210662	     20.52136580	      0.35816540	      2.91833621	      0.22224133	     -7.49999987	     30.98724878	      1.86651340	      9.55951335	     58.41239531	      1.01948862	      3.52412999	    -20.11080284	     -7.49999987	    -16.20875831	      1.98697816	     -6.33899455	     14.39798872	    -18.04730584	      3.61966956	     39.36160800	     77.22032363	     18.73427896	    -10.17957666	     11.01128817	     40.32228625	     69.21900055
      7.54237290	     -9.14236227	      2.15815299	     -6.48585420	      1.21044157	      0.95257174	     -0.04734654	     23.92227197	     -1.11602680	      6.78975927	     19.59646894	      0.34202290	      2.46869732	      2.26503015	     -7.49999987	     31.49714798	      1.80247705	     10.39153496	     53.95760165	      0.94173781	      3.33654779	    -18.38791499	     -7.49999987	    -15.66388580	      2.18372914	     -5.85525899	     14.84089587	    -18.50049294	      3.99002923	     40.62419247	     77.46703305	     18.31919244	     -9.65591982	     10.38981410	     40.99764030	     69.47982104
      7.55932200	     -9.18974409	      2.04470604	     -8.39371915	      1.21444884	      0.95458744	     -0.05206910	     23.49184403	     -1.02426909	      8.15621216	     18.38716323	      0.32091654	      1.31071190	      3.84738405	     -7.49999987	     31.95894142	      1.83539371	     11.39589972	     49.92006659	      0.87126952	      2.40311572	    -17.00516871	     -7.49999987	    -14.94194656	      2.67438748	     -5.52543818	     15.46945388	    -18.72175660	      4.08037585	     41.18600229	     77.68649703	     18.00226477	     -9.14440652	     10.32027923	     40.99292250	     69.62274643
      7.57627120	     -8.99633767	      1.83682137	    -10.66254250	      1.21700030	      0.95587862	     -0.05947919	     22.92544383	     -0.76256924	      9.87804737	     17.23346118	      0.30078064	      0.60425140	      6.15506505	     -7.49999987	     32.09521105	      1.72809725	     12.38305223	     46.05765231	      0.80385768	      2.04499680	    -15.66758437	     -7.49999987	    -14.97301162	      3.30994590	     -4.86495454	     15.86657719	    -19.51814098	      4.72230368	     43.43622396	     78.18967484	     17.72735463	     -8.34045188	      9.34532603	     41.57209978	     69.87579000
      7.59322030	     -8.95072398	      1.82021251	    -13.19412502	      1.22057636	      0.95835977	     -0.06422795	     22.17786563	     -0.61077352	     12.46970086	     15.19058716	      0.26512576	     -0.63390164	      7.07355557	     -7.49999987	     32.17491255	      1.84904076	     14.07343040	     42.18286292	      0.73622985	      1.17829648	    -14.50386625	     -7.49999987	    -14.69255967	      3.76986527	     -4.39813316	     16.72461369	    -20.08799719	      5.54741703	     44.98299642	     79.29114194	     17.10189662	     -7.37570635	      7.34445914	     41.88213039	     71.00481972
      7.61016950	     -8.95258985	      1.78941076	    -15.94102729	      1.22511262	      0.95347064	     -0.06347985	     21.65907550	     -0.41611184	     15.36894154	     13.19198892	      0.23024364	     -1.50992796	      7.90353039	     -7.49999987	     32.12285206	      1.56496620	     16.14970451	     38.84605232	      0.67799151	      1.46942595	    -12.52754488	     -7.49999987	    -14.46076210	      4.16410599	     -3.44977945	     17.36032245	    -20.82472145	      6.45820904	     46.69415127	     79.91633401	     16.80267401	     -6.76112980	      7.00672223	     41.77452064	     71.36545749
      7.62711860	     -8.93715182	      1.75084065	    -18.59349625	      1.22939354	      0.95124076	     -0.06230595	     21.18337658	     -0.02965756	     18.19882124	     11.56763210	      0.20189327	     -2.15288257	      8.65900209	     -7.49999987	     31.89056318	      1.01006038	     18.56687813	     36.05018624	      0.62919445	      2.14907866	    -10.28885321	     -7.49999987	    -14.26597277	      4.39221662	     -2.45684620	     17.48143989	    -21.44888495	      7.33089730	     48.59532419	     79.55525447	     16.41335869	     -6.14889000	      6.24271622	     41.42650071	     71.09111430
      7.64406780	     -9.01767740	      1.88247044	    -22.04755891	      1.22961347	      0.94725957	     -0.06880054	     21.35174168	      0.60482593	     20.06258010	     11.22446445	      0.19590386	     -1.97808413	      9.57987618	     -7.49999987	     31.67636707	      0.40968090	     20.31480689	     33.63843583	      0.58710146	      3.23610741	     -6.96184271	     -7.49999987	    -13.95373758	      4.40122841	     -1.21608129	     18.08725802	    -21.87950753	      8.21735596	     50.07615287	     79.75164740	     16.01796451	     -5.78953679	      5.86634070	     41.13784545	     71.11084044
      7.66101690	     -9.10500978	      2.03250250	    -25.56366746	      1.23083325	      0.94405368	     -0.06966295	     21.59012493	      1.47196199	     21.78102410	     11.20899958	      0.19563395	     -1.71553091	     10.30284139	     -7.49999987	     31.30133159	     -0.37947105	     21.27214580	     31.69155658	      0.55312201	      3.45725704	     -3.87558412	     -7.49999987	    -13.66980751	      4.35589732	      0.12724919	     18.49680947	    -22.49636566	      9.63459963	     51.83266939	     79.80745931	     15.73509844	     -5.44801102	      5.26397874	     40.34754189	     70.96918654
      7.67796610	     -8.93812709	      2.85422630	    -29.98370827	      1.23221261	      0.93715191	     -0.07612634	     22.45384892	      1.90406872	     22.69417826	     11.94843198	      0.20853948	     -0.91953552	     11.23255962	     -7.49999987	     30.86786573	     -0.63714720	     21.58747429	     30.84014858	      0.53826213	      3.97585981	     -1.32328302	     -7.49999987	    -12.96796358	      3.47160518	      1.49991522	     19.39189431	    -22.63656932	     11.23311086	     52.89414649	     79.67444957	     15.32541918	     -5.37720363	      5.02952438	     39.59821082	     70.72185129
